<?xml version="1.0" encoding="UTF-8" ?>
<!DOCTYPE svg PUBLIC "-//W3C//DTD SVG 1.1//EN" "http://www.w3.org/Graphics/SVG/1.1/DTD/svg11.dtd">
<svg width="80pt" height="105pt" viewBox="0 0 80 105" version="1.1" xmlns="http://www.w3.org/2000/svg">
<path fill="#ffffff" d=" M 0.00 0.00 L 80.00 0.00 L 80.00 105.00 L 64.68 105.00 C 68.96 103.79 71.19 98.26 68.34 94.66 C 66.13 91.34 61.54 91.73 58.48 93.55 C 58.51 91.02 58.50 88.49 58.26 85.97 L 56.91 87.14 C 56.30 91.07 56.58 95.11 56.70 99.08 C 56.65 101.88 59.05 103.70 61.21 105.00 L 49.59 105.00 C 50.50 104.58 51.40 104.14 52.30 103.69 C 52.89 104.02 54.08 104.67 54.67 104.99 C 54.50 101.19 55.89 96.25 52.43 93.49 C 49.01 90.57 43.06 92.45 42.01 96.87 C 40.85 100.32 43.50 103.40 46.30 105.00 L 32.47 105.00 C 32.92 101.51 31.34 96.63 34.98 94.44 C 36.90 93.97 38.91 94.20 40.87 94.14 C 39.46 91.09 35.82 92.38 33.29 92.85 C 32.45 92.59 31.60 92.32 30.76 92.05 C 30.67 96.36 30.67 100.68 30.76 104.99 L 29.93 105.00 L 24.29 105.00 C 25.80 104.45 27.53 104.01 28.56 102.67 C 28.88 100.34 28.66 97.99 28.56 95.65 C 26.32 95.70 24.08 95.75 21.84 95.90 C 22.72 98.00 25.09 97.51 26.92 97.78 C 26.75 99.25 26.94 100.83 26.36 102.22 C 22.13 104.81 15.95 101.89 15.35 96.96 C 14.61 93.20 17.29 89.29 21.01 88.54 C 23.80 87.79 26.32 89.53 28.82 90.45 C 28.79 87.50 25.43 86.61 23.03 86.50 C 17.86 86.10 13.01 90.81 13.37 96.00 C 13.29 100.29 16.71 103.71 20.57 105.00 L 0.00 105.00 L 0.00 45.32 C 0.72 45.36 2.15 45.44 2.87 45.48 L 2.56 47.80 C 2.15 47.68 1.33 47.42 0.93 47.29 C 2.41 50.11 3.27 53.17 3.78 56.30 C 4.37 60.37 7.09 63.63 8.87 67.22 C 7.08 67.87 7.12 69.66 9.40 69.66 C 10.79 71.25 12.44 72.65 14.71 72.44 C 14.78 72.89 14.91 73.80 14.98 74.26 C 15.06 73.77 15.21 72.79 15.29 72.30 C 17.14 72.96 19.01 73.54 20.93 73.93 C 23.79 75.59 26.88 76.80 30.01 77.82 C 31.46 76.98 32.88 76.07 34.23 75.08 C 36.36 74.27 38.50 73.39 40.30 71.95 C 40.97 71.76 42.30 71.39 42.97 71.20 C 42.78 70.30 42.58 69.40 42.39 68.50 C 43.05 68.43 44.39 68.29 45.06 68.21 C 45.77 67.42 46.48 66.62 47.21 65.84 C 51.11 65.35 51.20 61.01 51.66 57.98 C 51.06 57.06 50.46 56.14 49.87 55.21 C 50.57 55.76 51.97 56.86 52.68 57.42 C 53.36 55.62 52.65 54.14 51.44 52.85 L 51.44 52.81 C 52.02 52.76 53.20 52.65 53.78 52.60 C 53.64 50.94 53.50 49.28 53.37 47.62 C 54.55 50.59 55.78 53.74 55.16 56.99 C 54.44 63.06 50.02 67.62 46.85 72.54 C 45.33 73.05 43.84 73.62 42.33 74.16 C 43.58 74.73 44.82 75.30 46.06 75.88 C 46.44 77.03 46.63 78.27 47.24 79.33 C 50.09 80.35 53.02 81.08 55.92 81.95 C 59.15 80.21 62.69 79.16 66.21 78.16 C 66.37 77.67 66.68 76.70 66.84 76.21 C 68.33 76.38 69.81 76.54 71.30 76.70 C 72.74 73.83 74.18 70.95 75.49 68.02 C 76.80 61.33 75.91 53.98 79.51 47.94 C 76.61 43.98 75.15 39.21 72.38 35.16 C 71.71 35.19 70.35 35.26 69.67 35.29 C 68.42 33.58 67.20 31.85 66.08 30.05 C 65.69 30.18 64.92 30.45 64.54 30.58 C 64.02 28.42 63.47 26.27 63.17 24.07 C 62.18 23.50 61.19 22.91 60.17 22.39 C 59.68 19.81 58.28 17.61 56.33 15.90 C 55.38 16.02 53.47 16.26 52.52 16.37 C 52.12 16.11 51.33 15.59 50.94 15.33 C 50.53 15.35 49.72 15.38 49.31 15.40 C 46.87 13.24 43.92 11.97 40.67 13.53 C 45.11 15.21 48.70 18.53 53.22 19.99 C 54.19 21.48 55.13 22.98 56.09 24.48 C 52.28 24.04 49.69 20.96 46.38 19.39 C 42.19 17.33 37.76 15.79 33.49 13.91 C 36.24 10.42 34.00 6.20 31.88 3.08 C 31.24 4.72 32.11 7.15 30.54 8.40 C 29.26 9.38 27.75 10.00 26.34 10.76 C 26.41 11.16 26.54 11.95 26.60 12.35 C 26.14 13.03 25.20 14.38 24.74 15.05 C 22.68 16.25 20.89 17.83 19.92 20.05 C 16.85 21.66 14.14 23.82 11.50 26.04 C 11.15 27.11 10.79 28.19 10.42 29.26 C 8.72 29.55 7.04 29.98 5.39 30.54 C 5.41 31.29 5.43 32.80 5.44 33.56 C 4.37 34.95 3.55 36.52 3.37 38.30 C 3.11 38.67 2.58 39.42 2.31 39.79 C 2.43 40.23 2.67 41.09 2.79 41.52 C 2.31 42.39 1.34 44.12 0.86 44.98 L 0.00 43.20 L 0.00 0.00 Z" />
<path fill="#4bbb5a" d=" M 35.60 1.90 C 36.18 1.65 37.33 1.16 37.91 0.91 C 37.34 1.58 36.18 2.92 35.61 3.59 C 36.30 3.50 37.70 3.31 38.39 3.22 C 38.26 5.22 38.18 7.21 38.16 9.22 C 40.09 10.40 42.04 11.57 43.99 12.74 C 42.71 12.62 40.15 12.37 38.87 12.24 C 38.73 12.72 38.44 13.67 38.29 14.15 C 34.61 11.09 35.53 6.11 35.60 1.90 Z" />
<path fill="#006738" d=" M 31.88 3.08 C 34.00 6.20 36.24 10.42 33.49 13.91 C 30.76 18.54 27.27 22.83 22.64 25.67 C 17.75 28.51 15.20 33.73 12.49 38.44 C 8.95 45.27 7.08 53.92 11.01 60.99 C 15.07 67.15 22.52 70.15 29.70 70.37 C 33.44 68.84 36.98 66.90 40.52 64.97 C 44.13 64.32 44.29 59.66 47.45 58.11 C 47.61 56.07 47.69 54.02 47.75 51.97 C 41.45 49.67 36.33 44.77 29.48 43.85 C 29.51 44.57 29.58 46.02 29.62 46.74 C 28.00 46.24 26.37 45.74 24.75 45.25 C 24.51 45.83 24.03 47.01 23.80 47.60 C 23.69 46.24 23.58 44.89 23.47 43.54 C 27.86 43.36 32.27 43.36 36.66 43.55 C 38.80 44.46 40.81 45.93 43.27 45.69 C 44.16 46.35 45.05 47.03 45.94 47.71 C 47.72 47.98 49.50 48.26 51.29 48.53 C 51.33 49.96 51.38 51.38 51.44 52.81 L 51.44 52.85 C 52.65 54.14 53.36 55.62 52.68 57.42 C 51.97 56.86 50.57 55.76 49.87 55.21 C 50.46 56.14 51.06 57.06 51.66 57.98 C 51.20 61.01 51.11 65.35 47.21 65.84 C 46.48 66.62 45.77 67.42 45.06 68.21 C 44.39 68.29 43.05 68.43 42.39 68.50 C 42.58 69.40 42.78 70.30 42.97 71.20 C 42.30 71.39 40.97 71.76 40.30 71.95 C 38.50 73.39 36.36 74.27 34.23 75.08 C 32.88 76.07 31.46 76.98 30.01 77.82 C 26.88 76.80 23.79 75.59 20.93 73.93 C 19.01 73.54 17.14 72.96 15.29 72.30 C 15.21 72.79 15.06 73.77 14.98 74.26 C 14.91 73.80 14.78 72.89 14.71 72.44 C 12.44 72.65 10.79 71.25 9.40 69.66 C 7.12 69.66 7.08 67.87 8.87 67.22 C 7.09 63.63 4.37 60.37 3.78 56.30 C 3.27 53.17 2.41 50.11 0.93 47.29 C 1.33 47.42 2.15 47.68 2.56 47.80 L 2.87 45.48 C 2.15 45.44 0.72 45.36 0.00 45.32 L 0.00 43.20 L 0.86 44.98 C 1.34 44.12 2.31 42.39 2.79 41.52 C 2.67 41.09 2.43 40.23 2.31 39.79 C 2.58 39.42 3.11 38.67 3.37 38.30 C 3.55 36.52 4.37 34.95 5.44 33.56 C 5.43 32.80 5.41 31.29 5.39 30.54 C 7.04 29.98 8.72 29.55 10.42 29.26 C 10.79 28.19 11.15 27.11 11.50 26.04 C 14.14 23.82 16.85 21.66 19.92 20.05 C 20.89 17.83 22.68 16.25 24.74 15.05 C 25.20 14.38 26.14 13.03 26.60 12.35 C 26.54 11.95 26.41 11.16 26.34 10.76 C 27.75 10.00 29.26 9.38 30.54 8.40 C 32.11 7.15 31.24 4.72 31.88 3.08 Z" />
<path fill="#38b449" d=" M 40.67 13.53 C 43.92 11.97 46.87 13.24 49.31 15.40 C 49.72 15.38 50.53 15.35 50.94 15.33 C 51.33 15.59 52.12 16.11 52.52 16.37 C 53.47 16.26 55.38 16.02 56.33 15.90 C 56.35 16.56 56.38 17.87 56.40 18.53 C 56.95 19.64 57.50 20.75 58.04 21.86 C 58.57 21.99 59.64 22.26 60.17 22.39 C 61.19 22.91 62.18 23.50 63.17 24.07 C 63.47 26.27 64.02 28.42 64.54 30.58 C 64.92 30.45 65.69 30.18 66.08 30.05 C 67.20 31.85 68.42 33.58 69.67 35.29 C 70.35 35.26 71.71 35.19 72.38 35.16 C 75.15 39.21 76.61 43.98 79.51 47.94 C 75.91 53.98 76.80 61.33 75.49 68.02 C 74.18 70.95 72.74 73.83 71.30 76.70 C 69.81 76.54 68.33 76.38 66.84 76.21 C 66.68 76.70 66.37 77.67 66.21 78.16 C 62.69 79.16 59.15 80.21 55.92 81.95 C 53.02 81.08 50.09 80.35 47.24 79.33 C 46.63 78.27 46.44 77.03 46.06 75.88 C 44.82 75.30 43.58 74.73 42.33 74.16 C 43.84 73.62 45.33 73.05 46.85 72.54 C 51.00 72.00 54.76 76.05 58.88 73.92 C 65.36 70.83 69.17 64.11 71.35 57.55 C 72.84 53.10 72.20 48.37 71.56 43.83 C 66.76 40.27 60.73 36.71 59.99 30.15 C 58.45 28.75 57.36 26.98 56.76 24.98 C 56.59 24.86 56.26 24.60 56.09 24.48 C 55.13 22.98 54.19 21.48 53.22 19.99 C 48.70 18.53 45.11 15.21 40.67 13.53 Z" />
<path fill="#e4f0d9" d=" M 22.64 25.67 C 27.27 22.83 30.76 18.54 33.49 13.91 C 37.76 15.79 42.19 17.33 46.38 19.39 C 49.69 20.96 52.28 24.04 56.09 24.48 C 56.26 24.60 56.59 24.86 56.76 24.98 C 57.36 26.98 58.45 28.75 59.99 30.15 C 60.73 36.71 66.76 40.27 71.56 43.83 C 72.20 48.37 72.84 53.10 71.35 57.55 C 69.17 64.11 65.36 70.83 58.88 73.92 C 54.76 76.05 51.00 72.00 46.85 72.54 C 50.02 67.62 54.44 63.06 55.16 56.99 C 55.78 53.74 54.55 50.59 53.37 47.62 C 53.50 49.28 53.64 50.94 53.78 52.60 C 53.20 52.65 52.02 52.76 51.44 52.81 C 51.38 51.38 51.33 49.96 51.29 48.53 C 49.50 48.26 47.72 47.98 45.94 47.71 C 45.05 47.03 44.16 46.35 43.27 45.69 C 40.81 45.93 38.80 44.46 36.66 43.55 C 32.27 43.36 27.86 43.36 23.47 43.54 C 23.58 44.89 23.69 46.24 23.80 47.60 C 24.03 47.01 24.51 45.83 24.75 45.25 C 26.37 45.74 28.00 46.24 29.62 46.74 C 29.58 46.02 29.51 44.57 29.48 43.85 C 36.33 44.77 41.45 49.67 47.75 51.97 C 47.69 54.02 47.61 56.07 47.45 58.11 C 44.29 59.66 44.13 64.32 40.52 64.97 C 36.98 66.90 33.44 68.84 29.70 70.37 C 22.52 70.15 15.07 67.15 11.01 60.99 C 7.08 53.92 8.95 45.27 12.49 38.44 C 15.20 33.73 17.75 28.51 22.64 25.67 Z" />
<path fill="#a0dba8" d=" M 56.33 15.90 C 58.28 17.61 59.68 19.81 60.17 22.39 C 59.64 22.26 58.57 21.99 58.04 21.86 C 57.50 20.75 56.95 19.64 56.40 18.53 C 56.38 17.87 56.35 16.56 56.33 15.90 Z" />
<path fill="#066b3d" d=" M 13.37 96.00 C 13.01 90.81 17.86 86.10 23.03 86.50 C 25.43 86.61 28.79 87.50 28.82 90.45 C 26.32 89.53 23.80 87.79 21.01 88.54 C 17.29 89.29 14.61 93.20 15.35 96.96 C 15.95 101.89 22.13 104.81 26.36 102.22 C 26.94 100.83 26.75 99.25 26.92 97.78 C 25.09 97.51 22.72 98.00 21.84 95.90 C 24.08 95.75 26.32 95.70 28.56 95.65 C 28.66 97.99 28.88 100.34 28.56 102.67 C 27.53 104.01 25.80 104.45 24.29 105.00 L 20.57 105.00 C 16.71 103.71 13.29 100.29 13.37 96.00 Z" />
<path fill="#04693b" d=" M 56.91 87.14 L 58.26 85.97 C 58.50 88.49 58.51 91.02 58.48 93.55 C 61.54 91.73 66.13 91.34 68.34 94.66 C 71.19 98.26 68.96 103.79 64.68 105.00 L 61.21 105.00 C 59.05 103.70 56.65 101.88 56.70 99.08 C 56.58 95.11 56.30 91.07 56.91 87.14 Z" />
<path fill="#02683a" d=" M 30.76 92.05 C 31.60 92.32 32.45 92.59 33.29 92.85 C 35.82 92.38 39.46 91.09 40.87 94.14 C 38.91 94.20 36.90 93.97 34.98 94.44 C 31.34 96.63 32.92 101.51 32.47 105.00 L 29.93 105.00 L 30.76 104.99 C 30.67 100.68 30.67 96.36 30.76 92.05 Z" />
<path fill="#02683a" d=" M 42.01 96.87 C 43.06 92.45 49.01 90.57 52.43 93.49 C 55.89 96.25 54.50 101.19 54.67 104.99 C 54.08 104.67 52.89 104.02 52.30 103.69 C 51.40 104.14 50.50 104.58 49.59 105.00 L 46.30 105.00 C 43.50 103.40 40.85 100.32 42.01 96.87 Z" />
<path fill="#ffffff" d=" M 46.30 94.37 C 48.99 93.24 52.69 94.77 52.82 97.93 C 53.57 101.42 49.24 104.53 46.21 102.64 C 42.83 101.19 42.89 95.74 46.30 94.37 Z" />
<path fill="#ffffff" d=" M 58.70 96.95 C 60.06 92.52 67.69 93.36 67.69 98.13 C 68.17 101.06 65.40 102.79 62.99 103.53 C 60.16 102.71 57.54 100.13 58.70 96.95 Z" />
</svg>
